<svg width="14" height="11" viewBox="0 0 14 11" fill="none" xmlns="http://www.w3.org/2000/svg">
<path d="M11.8593 0.921248C10.9531 0.490875 9.98409 0.178098 8.97102 0C8.84661 0.228315 8.70125 0.535404 8.60104 0.779692C7.52412 0.615308 6.45712 0.615308 5.40001 0.779692C5.29981 0.535404 5.15116 0.228315 5.02563 0C4.01147 0.178098 3.04136 0.492024 2.13511 0.923527C0.307208 3.72718 -0.188307 6.4612 0.0594514 9.15639C1.27181 10.0753 2.44674 10.6336 3.60184 10.9989C3.88704 10.6005 4.14139 10.1769 4.36052 9.7306C3.94319 9.56964 3.54347 9.37102 3.16579 9.14042C3.26599 9.06508 3.364 8.9863 3.45869 8.90525C5.76228 9.99887 8.26519 9.99887 10.5413 8.90525C10.6371 8.9863 10.7351 9.06508 10.8342 9.14042C10.4554 9.37215 10.0546 9.57078 9.63723 9.73175C9.85635 10.1769 10.1096 10.6016 10.3959 11C11.5521 10.6347 12.7281 10.0765 13.9405 9.15639C14.2312 6.03198 13.4439 3.32307 11.8593 0.921248ZM4.67435 7.49887C3.98284 7.49887 3.41574 6.84361 3.41574 6.04567C3.41574 5.24773 3.97073 4.59134 4.67435 4.59134C5.378 4.59134 5.94508 5.24658 5.93297 6.04567C5.93406 6.84361 5.378 7.49887 4.67435 7.49887ZM9.3256 7.49887C8.63408 7.49887 8.06699 6.84361 8.06699 6.04567C8.06699 5.24773 8.62195 4.59134 9.3256 4.59134C10.0292 4.59134 10.5963 5.24658 10.5842 6.04567C10.5842 6.84361 10.0292 7.49887 9.3256 7.49887Z" fill="white" fill-opacity="0.3"/>
</svg>
