<svg width="16" height="16" viewBox="0 0 16 16" fill="none" xmlns="http://www.w3.org/2000/svg">
<path d="M11.25 2.5H13.875C14.1071 2.5 14.3296 2.59219 14.4937 2.75628C14.6578 2.92038 14.75 3.14294 14.75 3.375V13C14.75 13.4641 14.5656 13.9092 14.2374 14.2374C13.9092 14.5656 13.4641 14.75 13 14.75M11.25 2.5V13C11.25 13.4641 11.4344 13.9092 11.7626 14.2374C12.0908 14.5656 12.5359 14.75 13 14.75M11.25 2.5V1.625C11.25 1.39294 11.1578 1.17038 10.9937 1.00628C10.8296 0.842187 10.6071 0.75 10.375 0.75H1.625C1.39294 0.75 1.17038 0.842187 1.00628 1.00628C0.842187 1.17038 0.75 1.39294 0.75 1.625V12.125C0.75 12.8212 1.02656 13.4889 1.51884 13.9812C2.01113 14.4734 2.67881 14.75 3.375 14.75H13M4.25 4.25H7.75M4.25 7.75H7.75M4.25 11.25H7.75" stroke="white" stroke-opacity="0.3" stroke-width="1.5" stroke-linecap="round" stroke-linejoin="round"/>
</svg>
