<svg width="22" height="25" viewBox="0 0 22 25" fill="none" xmlns="http://www.w3.org/2000/svg">
<path d="M20.087 4.8125L12.8949 0.525C11.7204 -0.175 10.2675 -0.175 9.0809 0.525L1.90094 4.8125C0.726472 5.5125 0 6.8125 0 8.225V16.775C0 18.175 0.726472 19.475 1.90094 20.1875L9.09301 24.475C10.2675 25.175 11.7204 25.175 12.907 24.475L20.0991 20.1875C21.2735 19.4875 22 18.1875 22 16.775V8.225C21.9879 6.8125 21.2614 5.525 20.087 4.8125ZM10.9939 6.675C12.5559 6.675 13.8151 7.975 13.8151 9.5875C13.8151 11.2 12.5559 12.5 10.9939 12.5C9.43203 12.5 8.17281 11.2 8.17281 9.5875C8.17281 7.9875 9.43203 6.675 10.9939 6.675ZM14.2389 18.325H7.74904C6.7683 18.325 6.19923 17.2 6.74408 16.3625C7.56742 15.1 9.16566 14.25 10.9939 14.25C12.8222 14.25 14.4205 15.1 15.2438 16.3625C15.7887 17.1875 15.2075 18.325 14.2389 18.325Z" fill="white" fill-opacity="0.3"/>
</svg>
