<svg width="100" height="87" viewBox="0 0 100 87" fill="none" xmlns="http://www.w3.org/2000/svg">
<path d="M49.9658 -27.1719C54.5311 -41.2215 74.4084 -41.2215 78.9736 -27.1719L83.791 -12.3438C85.7657 -6.26642 91.4293 -2.15137 97.8193 -2.15137H113.41C128.183 -2.15135 134.325 16.7521 122.374 25.4355L109.761 34.5996C104.591 38.3556 102.428 45.0135 104.402 51.0908L109.22 65.9189C113.785 79.9689 97.7045 91.652 85.7529 82.9688L73.1396 73.8047C67.97 70.0487 60.9695 70.0487 55.7998 73.8047L43.1865 82.9688C31.2349 91.652 15.1547 79.9689 19.7197 65.9189L24.5371 51.0908C26.5117 45.0135 24.3484 38.3556 19.1787 34.5996L6.56543 25.4355C-5.38591 16.7521 0.756371 -2.15134 15.5293 -2.15137H31.1201C37.5102 -2.15137 43.1738 -6.26642 45.1484 -12.3438L49.9658 -27.1719Z" stroke="white" stroke-opacity="0.1" stroke-width="0.5"/>
</svg>
