<svg width="259" height="230" viewBox="0 0 259 230" fill="none" xmlns="http://www.w3.org/2000/svg">
<path d="M95.1037 301.528C94.0596 324.997 123.657 336.091 138.296 317.718L182.817 261.842C189.229 253.795 200.093 250.792 209.728 254.403L276.626 279.479C298.623 287.724 318.32 263.004 305.37 243.404L265.988 183.795C260.316 175.211 260.817 163.95 267.229 155.903L311.75 100.027C326.388 81.6542 308.965 55.2831 286.323 61.5417L217.461 80.5776C207.544 83.319 196.989 79.3628 191.318 70.7782L151.934 11.1689C138.984 -8.43067 108.52 -0.00913304 107.476 23.4589L104.3 94.8322C103.843 105.111 96.8183 113.927 86.9011 116.668L18.0401 135.705C-4.60223 141.964 -6.00679 173.54 15.9903 181.785L82.8885 206.86C92.5231 210.471 98.7367 219.876 98.2794 230.155L95.1037 301.528Z" stroke="white" stroke-opacity="0.3" stroke-width="0.5"/>
</svg>
