<svg width="104" height="105" viewBox="0 0 104 105" fill="none" xmlns="http://www.w3.org/2000/svg">
<path d="M24.4961 10.7871C29.0613 -3.26255 48.9387 -3.26254 53.5039 10.7871L58.3213 25.6152C60.2959 31.6926 65.9595 35.8076 72.3496 35.8076H87.9404C102.713 35.8076 108.856 54.7111 96.9043 63.3945L84.291 72.5586C79.1213 76.3146 76.958 82.9725 78.9326 89.0498L83.75 103.878C88.315 117.928 72.2348 129.611 60.2832 120.928L47.6699 111.764C42.5002 108.008 35.4998 108.008 30.3301 111.764L17.7168 120.928C5.7652 129.611 -10.315 117.928 -5.75 103.878L-0.932617 89.0498C1.042 82.9725 -1.12134 76.3146 -6.29102 72.5586L-18.9043 63.3945C-30.8556 54.7111 -24.7134 35.8076 -9.94043 35.8076H5.65039C12.0405 35.8076 17.7041 31.6926 19.6787 25.6152L24.4961 10.7871Z" stroke="white" stroke-opacity="0.1" stroke-width="0.5"/>
</svg>
