<svg width="16" height="15" viewBox="0 0 16 15" fill="none" xmlns="http://www.w3.org/2000/svg">
<path d="M4.7385 4.67314H10.9607M4.7385 7.73196H9.40517M5.51628 11.5555H3.18294C2.5641 11.5555 1.97061 11.3138 1.53303 10.8836C1.09544 10.4533 0.849609 9.86981 0.849609 9.26137V3.14373C0.849609 2.53529 1.09544 1.95177 1.53303 1.52154C1.97061 1.09131 2.5641 0.849609 3.18294 0.849609H12.5163C13.1351 0.849609 13.7286 1.09131 14.1662 1.52154C14.6038 1.95177 14.8496 2.53529 14.8496 3.14373V9.26137C14.8496 9.86981 14.6038 10.4533 14.1662 10.8836C13.7286 11.3138 13.1351 11.5555 12.5163 11.5555H10.1829L7.84961 13.8496L5.51628 11.5555Z" stroke="white" stroke-opacity="0.3" stroke-width="1.7" stroke-linecap="round" stroke-linejoin="round"/>
</svg>
