<svg width="14" height="13" viewBox="0 0 14 13" fill="none" xmlns="http://www.w3.org/2000/svg">
<path d="M12.6637 4.58558C11.3973 4.58558 10.8796 3.70412 11.5092 2.62296C11.8731 1.9963 11.6562 1.19748 11.0195 0.839384L9.8091 0.15763C9.25637 -0.16603 8.54273 0.026789 8.21389 0.570814L8.13693 0.701656C7.50725 1.78282 6.47176 1.78282 5.83508 0.701656L5.75812 0.570814C5.44328 0.026789 4.72964 -0.16603 4.17691 0.15763L2.96652 0.839384C2.32983 1.19748 2.11294 2.00318 2.47676 2.62985C3.11344 3.70412 2.5957 4.58558 1.32934 4.58558C0.601699 4.58558 0 5.17093 0 5.894V7.106C0 7.82219 0.594703 8.41442 1.32934 8.41442C2.5957 8.41442 3.11344 9.29588 2.47676 10.377C2.11294 11.0037 2.32983 11.8025 2.96652 12.1606L4.17691 12.8424C4.72964 13.166 5.44328 12.9732 5.77211 12.4292L5.84908 12.2983C6.47876 11.2172 7.51424 11.2172 8.15092 12.2983L8.22789 12.4292C8.55672 12.9732 9.27037 13.166 9.82309 12.8424L11.0335 12.1606C11.6702 11.8025 11.8871 10.9968 11.5232 10.377C10.8866 9.29588 11.4043 8.41442 12.6707 8.41442C13.3983 8.41442 14 7.82907 14 7.106V5.894C13.993 5.17781 13.3983 4.58558 12.6637 4.58558ZM6.9965 8.73808C5.74413 8.73808 4.72264 7.73267 4.72264 6.5C4.72264 5.26734 5.74413 4.26192 6.9965 4.26192C8.24888 4.26192 9.27036 5.26734 9.27036 6.5C9.27036 7.73267 8.24888 8.73808 6.9965 8.73808Z" fill="white" fill-opacity="0.3"/>
</svg>
