<svg width="324" height="157" viewBox="0 0 324 157" fill="none" xmlns="http://www.w3.org/2000/svg">
<path d="M201.249 148.578C217.626 165.42 245.987 151.465 242.637 128.214L232.45 57.5C230.982 47.316 236.24 37.3451 245.472 32.8027L309.576 1.26203C330.654 -9.10896 326.147 -40.3932 302.999 -44.3924L232.598 -56.5557C222.459 -58.3074 214.601 -66.3886 213.134 -76.5726L202.946 -147.286C199.596 -170.538 168.45 -175.918 157.493 -155.139L124.17 -91.9416C119.371 -82.8402 109.258 -77.864 99.1187 -79.6156L28.7171 -91.7785C5.56872 -95.7773 -9.17311 -67.8188 7.20357 -50.977L57.01 0.243634C64.183 7.62024 65.7902 18.7772 60.9912 27.8786L27.6694 91.0756C16.7126 111.855 38.7476 134.516 59.8259 124.145L123.93 92.6039C133.162 88.0615 144.27 89.9805 151.443 97.3571L201.249 148.578Z" stroke="white" stroke-opacity="0.3" stroke-width="0.5"/>
</svg>
