<svg width="16" height="16" viewBox="0 0 16 16" fill="none" xmlns="http://www.w3.org/2000/svg">
<path d="M0.75 14.7488H14.75M10.0833 4.63855C10.0833 5.25734 10.3292 5.85078 10.7668 6.28832C11.2043 6.72587 11.7978 6.97168 12.4167 6.97168C13.0355 6.97168 13.629 6.72587 14.0666 6.28832C14.5042 5.85078 14.75 5.25734 14.75 4.63855V3.86084L13.1944 0.75H2.30556L0.75 3.86084V4.63855C0.75 5.25734 0.995833 5.85078 1.43342 6.28832C1.871 6.72587 2.46449 6.97168 3.08333 6.97168C3.70217 6.97168 4.29566 6.72587 4.73325 6.28832C5.17083 5.85078 5.41667 5.25734 5.41667 4.63855M0.75 3.86084H5.41667M5.41667 4.63855V3.86084M5.41667 4.63855C5.41667 5.25734 5.6625 5.85078 6.10008 6.28832C6.53767 6.72587 7.13116 6.97168 7.75 6.97168C8.36884 6.97168 8.96233 6.72587 9.39992 6.28832C9.8375 5.85078 10.0833 5.25734 10.0833 4.63855M5.41667 3.86084H10.0833M10.0833 4.63855V3.86084M10.0833 3.86084H14.75M2.30556 14.75V6.85624M13.1944 14.75V6.85624M5.41667 14.7488V11.6379C5.41667 11.2254 5.58056 10.8298 5.87228 10.5381C6.164 10.2464 6.55966 10.0825 6.97222 10.0825H8.52778C8.94034 10.0825 9.336 10.2464 9.62772 10.5381C9.91944 10.8298 10.0833 11.2254 10.0833 11.6379V14.7488" stroke="white" stroke-opacity="0.3" stroke-width="1.5" stroke-linecap="round" stroke-linejoin="round"/>
</svg>
